<svg width="20" height="20" viewBox="0 0 20 20" fill="none" xmlns="http://www.w3.org/2000/svg">
<g clip-path="url(#clip0_77_3548)">
<path fill-rule="evenodd" clip-rule="evenodd" d="M10.0001 1.6665C10.2042 1.66653 10.4012 1.74147 10.5537 1.8771C10.7062 2.01273 10.8037 2.19963 10.8276 2.40234L10.8334 2.49984V3.33317H11.6667C11.8791 3.33341 12.0834 3.41474 12.2379 3.56054C12.3923 3.70635 12.4852 3.90563 12.4977 4.11767C12.5101 4.3297 12.4412 4.53849 12.3048 4.70136C12.1685 4.86424 11.9751 4.96892 11.7642 4.994L11.6667 4.99984H10.8334V6.24984L13.8334 8.49984C13.9237 8.56758 13.9993 8.65296 14.0556 8.7508C14.1119 8.84864 14.1477 8.9569 14.1609 9.069L14.1667 9.1665V10.3873L16.2959 11.8065C16.3954 11.8729 16.4794 11.96 16.5422 12.0618C16.6051 12.1636 16.6453 12.2778 16.6601 12.3965L16.6667 12.4998V16.6665C16.8791 16.6667 17.0834 16.7481 17.2379 16.8939C17.3923 17.0397 17.4852 17.239 17.4977 17.451C17.5101 17.663 17.4412 17.8718 17.3048 18.0347C17.1685 18.1976 16.9751 18.3022 16.7642 18.3273L16.6667 18.3332H3.33339C3.12099 18.3329 2.91669 18.2516 2.76225 18.1058C2.6078 17.96 2.51486 17.7607 2.50241 17.5487C2.48996 17.3366 2.55895 17.1279 2.69527 16.965C2.8316 16.8021 3.02497 16.6974 3.23589 16.6723L3.33339 16.6665V12.4998C3.33333 12.3801 3.35905 12.2619 3.4088 12.153C3.45856 12.0441 3.53118 11.9473 3.62172 11.869L3.70505 11.8065L5.83339 10.3873V9.1665C5.83336 9.05369 5.85625 8.94204 5.90066 8.83833C5.94506 8.73463 6.01006 8.64101 6.09172 8.56317L6.16672 8.49984L9.16672 6.24984V4.99984H8.33339C8.12099 4.9996 7.91669 4.91827 7.76225 4.77246C7.6078 4.62666 7.51486 4.42738 7.50241 4.21534C7.48996 4.00331 7.55895 3.79452 7.69527 3.63164C7.8316 3.46877 8.02497 3.36409 8.23589 3.339L8.33339 3.33317H9.16672V2.49984C9.16672 2.27882 9.25452 2.06686 9.4108 1.91058C9.56708 1.7543 9.77904 1.6665 10.0001 1.6665ZM10.0001 7.70817L7.50005 9.58317V10.8332C7.50011 10.9529 7.47439 11.0712 7.42464 11.18C7.37488 11.2889 7.30226 11.3857 7.21172 11.464L7.12839 11.5265L5.00005 12.9457V16.6665H7.50005V14.1665C7.49943 13.5157 7.75257 12.8904 8.2057 12.4233C8.65882 11.9562 9.27622 11.6843 9.92669 11.6652C10.5772 11.6461 11.2094 11.8814 11.6892 12.3211C12.1689 12.7607 12.4583 13.3702 12.4959 14.0198L12.5001 14.1665V16.6665H15.0001V12.9457L12.8709 11.5265C12.7714 11.4601 12.6874 11.373 12.6245 11.2712C12.5617 11.1694 12.5215 11.0552 12.5067 10.9365L12.5001 10.8332V9.58317L10.0001 7.70817ZM10.0001 13.3332C9.79594 13.3332 9.59894 13.4081 9.44641 13.5438C9.29388 13.6794 9.19643 13.8663 9.17255 14.069L9.16672 14.1665V16.6665H10.8334V14.1665L10.8276 14.069C10.8037 13.8663 10.7062 13.6794 10.5537 13.5438C10.4012 13.4081 10.2042 13.3332 10.0001 13.3332Z" fill="white"/>
</g>
<defs>
<clipPath id="clip0_77_3548">
<rect width="20" height="20" fill="white"/>
</clipPath>
</defs>
</svg>
