<svg width="20" height="20" viewBox="0 0 20 20" fill="none" xmlns="http://www.w3.org/2000/svg">
<path fill-rule="evenodd" clip-rule="evenodd" d="M9.99996 1.6665C14.6025 1.6665 18.3333 5.39734 18.3333 9.99984C18.3333 14.6023 14.6025 18.3332 9.99996 18.3332C5.39746 18.3332 1.66663 14.6023 1.66663 9.99984C1.66663 5.39734 5.39746 1.6665 9.99996 1.6665ZM11.235 14.1165C10.413 14.1836 9.58693 14.1836 8.76496 14.1165C8.84246 14.4473 8.92913 14.754 9.02329 15.0348C9.23246 15.664 9.46496 16.1123 9.68163 16.3865C9.78746 16.5215 9.87329 16.5932 9.93163 16.6282L9.97413 16.6515L9.99913 16.6582L10.0258 16.6515L10.0683 16.629C10.165 16.5635 10.2496 16.4818 10.3183 16.3873C10.535 16.1123 10.7675 15.664 10.9766 15.0348C11.0708 14.754 11.1575 14.4473 11.235 14.1165ZM4.00579 12.9207C4.76255 14.4699 6.0884 15.6671 7.70663 16.2623C7.60837 16.0329 7.51995 15.7993 7.44163 15.5623C7.25984 15.0078 7.11508 14.4419 7.00829 13.8682C5.97679 13.6593 4.97033 13.3417 4.00579 12.9207ZM15.995 12.9207C15.0408 13.3373 14.0358 13.6565 12.9908 13.8682C12.8845 14.4422 12.7397 15.0085 12.5575 15.5632C12.4775 15.8048 12.3891 16.0398 12.2925 16.2615C13.9113 15.6666 15.2377 14.4694 15.995 12.9198V12.9207ZM11.6466 9.059C10.5536 9.2031 9.44634 9.2031 8.35329 9.059C8.30574 10.1784 8.34503 11.2998 8.47079 12.4132C9.48694 12.5291 10.513 12.5291 11.5291 12.4132C11.6216 11.6121 11.6675 10.8063 11.6666 9.99984C11.6666 9.67984 11.66 9.3665 11.6466 9.05817V9.059ZM3.80663 7.5265C3.3992 8.54544 3.25033 9.64938 3.37329 10.7398C4.43457 11.3489 5.57514 11.808 6.76246 12.104C6.66 10.9812 6.63939 9.85234 6.70079 8.7265C5.68932 8.45018 4.71687 8.04698 3.80663 7.5265ZM16.1933 7.5265C15.283 8.04697 14.3106 8.45017 13.2991 8.7265C13.3606 9.85234 13.3399 10.9812 13.2375 12.104C14.4245 11.808 15.5648 11.3489 16.6258 10.7398C16.7486 9.64965 16.5997 8.54601 16.1925 7.52734L16.1933 7.5265ZM10.0133 3.34317L10.0041 3.3415L9.98746 3.344L9.95579 3.3565C9.84918 3.42416 9.75596 3.51089 9.68079 3.61234C9.46413 3.88734 9.23246 4.33567 9.02246 4.964C8.79746 5.63734 8.61579 6.464 8.49496 7.3965C9.4935 7.53524 10.5064 7.53524 11.505 7.3965C11.3841 6.46317 11.2016 5.63734 10.9775 4.964C10.7675 4.33567 10.5358 3.8865 10.3191 3.61234C10.2501 3.51816 10.1656 3.43644 10.0691 3.37067L10.0133 3.34317ZM7.70663 3.73817C6.46871 4.19313 5.39303 5.0041 4.61496 6.069C5.31746 6.47234 6.06996 6.799 6.86079 7.03817C6.99413 6.06817 7.19163 5.18567 7.44163 4.4365C7.52246 4.194 7.61079 3.95984 7.70663 3.73817ZM12.2933 3.73817C12.3891 3.95984 12.4766 4.194 12.5583 4.4365C12.8083 5.1865 13.0058 6.06817 13.1391 7.03817C13.9221 6.80143 14.6756 6.47628 15.385 6.069C14.6069 5.00406 13.5312 4.19309 12.2933 3.73817Z" fill="white"/>
</svg>
