<svg width="20" height="20" viewBox="0 0 20 20" fill="none" xmlns="http://www.w3.org/2000/svg">
<g clip-path="url(#clip0_77_3564)">
<path fill-rule="evenodd" clip-rule="evenodd" d="M9.09999 2.39024C9.19169 2.23288 9.32306 2.1023 9.48098 2.01155C9.6389 1.9208 9.81785 1.87305 9.99999 1.87305C10.1821 1.87305 10.3611 1.9208 10.519 2.01155C10.6769 2.1023 10.8083 2.23288 10.9 2.39024L13.2292 6.38858L17.7525 7.36858C17.9304 7.40724 18.0951 7.49187 18.2301 7.61402C18.3651 7.73617 18.4658 7.89158 18.522 8.06476C18.5783 8.23794 18.5881 8.42283 18.5506 8.60101C18.5131 8.77919 18.4296 8.94442 18.3083 9.08024L15.225 12.5311L15.6917 17.1352C15.7101 17.3165 15.6806 17.4995 15.6062 17.6658C15.5318 17.8322 15.415 17.9761 15.2676 18.0832C15.1202 18.1903 14.9472 18.2569 14.766 18.2762C14.5848 18.2956 14.4017 18.2671 14.235 18.1936L9.99999 16.3269L5.76499 18.1936C5.59825 18.2671 5.41515 18.2956 5.23395 18.2762C5.05275 18.2569 4.87981 18.1903 4.73238 18.0832C4.58495 17.9761 4.46821 17.8322 4.39379 17.6658C4.31938 17.4995 4.28991 17.3165 4.30832 17.1352L4.77499 12.5311L1.69165 9.08108C1.57018 8.94526 1.48645 8.77996 1.44883 8.60168C1.41121 8.42339 1.42102 8.23835 1.47727 8.06504C1.53353 7.89173 1.63426 7.7362 1.76941 7.61399C1.90456 7.49178 2.06941 7.40716 2.24749 7.36858L6.77082 6.38858L9.09999 2.39024ZM9.99999 4.15608L8.07249 7.46608C7.9996 7.59101 7.9015 7.6994 7.78443 7.78434C7.66735 7.86927 7.53387 7.92889 7.39249 7.95941L3.64915 8.77024L6.20082 11.6261C6.39582 11.8444 6.48999 12.1344 6.46082 12.4252L6.07499 16.2361L9.57999 14.6911C9.71233 14.6328 9.85537 14.6027 9.99999 14.6027C10.1446 14.6027 10.2876 14.6328 10.42 14.6911L13.925 16.2361L13.5392 12.4252C13.5245 12.2813 13.54 12.136 13.5846 11.9984C13.6292 11.8608 13.702 11.734 13.7983 11.6261L16.3508 8.77024L12.6075 7.95941C12.4661 7.92889 12.3326 7.86927 12.2155 7.78434C12.0985 7.6994 12.0004 7.59101 11.9275 7.46608L9.99999 4.15608Z" fill="white"/>
</g>
<defs>
<clipPath id="clip0_77_3564">
<rect width="20" height="20" fill="white"/>
</clipPath>
</defs>
</svg>
