<svg width="20" height="20" viewBox="0 0 20 20" fill="none" xmlns="http://www.w3.org/2000/svg">
<g clip-path="url(#clip0_77_3526)">
<path fill-rule="evenodd" clip-rule="evenodd" d="M9.37746 9.82508L9.56579 9.86675L12.6625 10.6401C13.6383 10.8843 14.1291 11.9134 13.8208 12.8401L14.0875 12.6568L14.6258 12.2718C14.8966 12.0801 15.1733 11.8984 15.4608 11.7551C16.7408 11.1151 18.2391 11.9976 18.3291 13.3976L18.3333 13.5309V13.5768C18.3333 14.1576 18.0833 14.7076 17.65 15.0884L17.5275 15.1884L14.9691 17.1068C14.72 17.2934 14.4391 17.4318 14.1408 17.5151L13.9591 17.5584L11.2841 18.0934C10.4533 18.2593 9.59171 18.1681 8.81413 17.8318L8.60413 17.7343L6.64579 16.7551C6.55938 16.7115 6.46604 16.6833 6.36996 16.6718L6.27329 16.6668H5.60996C5.47564 16.8995 5.28704 17.0962 5.06025 17.2403C4.83346 17.3844 4.57519 17.4715 4.30746 17.4943L4.16663 17.5001H3.33329C2.91281 17.5002 2.50782 17.3414 2.1995 17.0555C1.89118 16.7696 1.70233 16.3777 1.67079 15.9584L1.66663 15.8334V12.5001C1.6667 12.0797 1.8256 11.675 2.11149 11.3668C2.39738 11.0587 2.78914 10.8699 3.20829 10.8384L3.33329 10.8334H4.16663C4.56996 10.8334 4.93996 10.9768 5.22829 11.2159L5.33246 11.3093L6.99079 10.2734C7.64543 9.86412 8.42184 9.69476 9.18746 9.79425L9.37746 9.82508ZM7.87413 11.6868L5.83329 12.9618V15.0001H6.27329C6.66153 15.0001 7.04442 15.0906 7.39163 15.2643L9.34996 16.2434C9.84725 16.4919 10.4132 16.5676 10.9583 16.4584L13.6325 15.9234C13.7545 15.8992 13.8695 15.848 13.9691 15.7734L16.5275 13.8543C16.6341 13.7743 16.6666 13.6568 16.6666 13.5301C16.6666 13.4789 16.6543 13.4284 16.6307 13.383C16.607 13.3376 16.5728 13.2985 16.5308 13.2691C16.4889 13.2398 16.4404 13.221 16.3896 13.2143C16.3389 13.2077 16.2872 13.2134 16.2391 13.2309L14.2158 14.5809C13.8048 14.8546 13.322 15.0004 12.8283 15.0001H9.99996V13.3334H11.2991C11.474 13.3333 11.6443 13.2782 11.7861 13.1759C11.9279 13.0736 12.0339 12.9293 12.0891 12.7634L12.2583 12.2568L9.16163 11.4834C8.94437 11.4291 8.71839 11.4191 8.49717 11.454C8.27596 11.4889 8.06406 11.5681 7.87413 11.6868ZM4.16663 12.5001H3.33329V15.8334H4.16663V12.5001ZM13.3333 2.89175C14.1916 2.35508 15.1766 2.39758 15.9716 2.86092C16.8983 3.40092 17.5266 4.47925 17.4991 5.71258C17.465 7.24175 16.3241 8.49925 14.6341 9.54592L14.3025 9.74509C14.0041 9.92175 13.6858 10.0934 13.3333 10.0934C12.9808 10.0934 12.6625 9.92175 12.3641 9.74509L12.0325 9.54509C10.3416 8.49842 9.20163 7.24175 9.16663 5.71175C9.13913 4.47842 9.76746 3.40008 10.6941 2.86008C11.4891 2.39675 12.4733 2.35425 13.3325 2.89092L13.3333 2.89175ZM15.1325 4.30092C14.8166 4.11758 14.4408 4.09592 14.0675 4.41425L13.8958 4.57258C13.7359 4.69982 13.5376 4.76909 13.3333 4.76909C13.129 4.76909 12.9307 4.69982 12.7708 4.57258L12.5991 4.41425C12.225 4.09592 11.8491 4.11675 11.5341 4.30092C11.15 4.52508 10.8191 5.02592 10.8341 5.67592C10.8483 6.32425 11.3491 7.15925 12.8908 8.11675L13.0891 8.23675L13.3333 8.37925L13.5775 8.23758C15.275 7.22758 15.8175 6.35008 15.8333 5.67342C15.8483 5.02425 15.5175 4.52342 15.1333 4.29925L15.1325 4.30092Z" fill="white"/>
</g>
<defs>
<clipPath id="clip0_77_3526">
<rect width="20" height="20" fill="white"/>
</clipPath>
</defs>
</svg>
