<svg width="20" height="20" viewBox="0 0 20 20" fill="none" xmlns="http://www.w3.org/2000/svg">
<g clip-path="url(#clip0_77_3571)">
<path fill-rule="evenodd" clip-rule="evenodd" d="M10 10C11.5609 10 12.975 10.5167 14.0125 11.2392C14.9984 11.9267 15.8334 12.9483 15.8334 14.0475C15.8334 14.6508 15.5759 15.1508 15.17 15.5225C14.7884 15.8733 14.29 16.1008 13.7767 16.2558C12.7509 16.5667 11.4 16.6667 10 16.6667C8.60004 16.6667 7.24921 16.5667 6.22337 16.2558C5.71004 16.1008 5.21171 15.8733 4.82921 15.5225C4.42504 15.1517 4.16671 14.6517 4.16671 14.0483C4.16671 12.9492 5.00171 11.9275 5.98754 11.24C7.02504 10.5167 8.43921 10 10 10ZM10 11.6667C8.80004 11.6667 7.71421 12.0667 6.94171 12.6058C6.11754 13.1808 5.83337 13.7658 5.83337 14.0475C5.83337 14.3008 6.12671 14.4592 6.39337 14.5592L6.56421 14.6175L6.70587 14.6608C7.48921 14.8975 8.63921 15 10 15C11.2567 15 12.3325 14.9125 13.1067 14.7133L13.36 14.6408L13.5184 14.5908C13.8042 14.4933 14.1667 14.3292 14.1667 14.0475C14.1667 13.7658 13.8825 13.1808 13.0584 12.6058C12.2867 12.0675 11.2 11.6667 10 11.6667ZM15.8334 10.8333C16.7034 10.8333 17.4934 11.1208 18.0775 11.5275C18.6109 11.9 19.1667 12.5192 19.1667 13.2742C19.1667 14.3867 18.0859 14.785 17.1142 14.9242L16.8642 14.955L16.6234 14.9758C16.5851 14.9783 16.5467 14.9806 16.5084 14.9825C16.61 14.695 16.6667 14.3825 16.6667 14.0475C16.6667 13.7933 16.635 13.5458 16.5775 13.3075C16.8992 13.2825 17.1634 13.2408 17.36 13.1817C17.4467 13.155 17.3684 13.0733 17.2767 13.0025L17.1875 12.9375L17.1242 12.895C16.8741 12.7242 16.5921 12.6057 16.295 12.5467C15.9784 11.9133 15.4917 11.365 14.9734 10.9275C15.2558 10.865 15.5441 10.8334 15.8334 10.8333ZM4.16671 10.8333C4.46421 10.8333 4.75254 10.8667 5.02671 10.9275C4.50837 11.365 4.02171 11.9133 3.70504 12.5467C3.38171 12.6125 3.09587 12.7417 2.87587 12.895L2.76921 12.9683C2.66337 13.045 2.53921 13.1517 2.64004 13.1817C2.83671 13.2408 3.10087 13.2833 3.42337 13.3075C3.36504 13.5458 3.33337 13.7933 3.33337 14.0475C3.33337 14.3825 3.39004 14.695 3.49171 14.9825L3.25837 14.9658L3.01171 14.9408C2.01004 14.8183 0.833374 14.435 0.833374 13.2742C0.833374 12.52 1.38837 11.9 1.92254 11.5275C2.58326 11.0746 3.36569 10.8326 4.16671 10.8333ZM15.4167 5.83333C15.9692 5.83333 16.4991 6.05283 16.8898 6.44353C17.2805 6.83423 17.5 7.36413 17.5 7.91667C17.5 8.4692 17.2805 8.99911 16.8898 9.38981C16.4991 9.78051 15.9692 10 15.4167 10C14.8642 10 14.3343 9.78051 13.9436 9.38981C13.5529 8.99911 13.3334 8.4692 13.3334 7.91667C13.3334 7.36413 13.5529 6.83423 13.9436 6.44353C14.3343 6.05283 14.8642 5.83333 15.4167 5.83333ZM4.58337 5.83333C5.13591 5.83333 5.66581 6.05283 6.05651 6.44353C6.44721 6.83423 6.66671 7.36413 6.66671 7.91667C6.66671 8.4692 6.44721 8.99911 6.05651 9.38981C5.66581 9.78051 5.13591 10 4.58337 10C4.03084 10 3.50094 9.78051 3.11023 9.38981C2.71953 8.99911 2.50004 8.4692 2.50004 7.91667C2.50004 7.36413 2.71953 6.83423 3.11023 6.44353C3.50094 6.05283 4.03084 5.83333 4.58337 5.83333ZM10 2.5C10.8841 2.5 11.7319 2.85119 12.3571 3.47631C12.9822 4.10143 13.3334 4.94928 13.3334 5.83333C13.3334 6.71739 12.9822 7.56524 12.3571 8.19036C11.7319 8.81548 10.8841 9.16667 10 9.16667C9.11599 9.16667 8.26814 8.81548 7.64302 8.19036C7.0179 7.56524 6.66671 6.71739 6.66671 5.83333C6.66671 4.94928 7.0179 4.10143 7.64302 3.47631C8.26814 2.85119 9.11599 2.5 10 2.5ZM15.4167 7.5C15.3062 7.5 15.2002 7.5439 15.1221 7.62204C15.0439 7.70018 15 7.80616 15 7.91667C15 8.02717 15.0439 8.13315 15.1221 8.2113C15.2002 8.28944 15.3062 8.33333 15.4167 8.33333C15.5272 8.33333 15.6332 8.28944 15.7113 8.2113C15.7895 8.13315 15.8334 8.02717 15.8334 7.91667C15.8334 7.80616 15.7895 7.70018 15.7113 7.62204C15.6332 7.5439 15.5272 7.5 15.4167 7.5ZM4.58337 7.5C4.47287 7.5 4.36689 7.5439 4.28875 7.62204C4.21061 7.70018 4.16671 7.80616 4.16671 7.91667C4.16671 8.02717 4.21061 8.13315 4.28875 8.2113C4.36689 8.28944 4.47287 8.33333 4.58337 8.33333C4.69388 8.33333 4.79986 8.28944 4.878 8.2113C4.95614 8.13315 5.00004 8.02717 5.00004 7.91667C5.00004 7.80616 4.95614 7.70018 4.878 7.62204C4.79986 7.5439 4.69388 7.5 4.58337 7.5ZM10 4.16667C9.55801 4.16667 9.13409 4.34226 8.82153 4.65482C8.50897 4.96738 8.33337 5.39131 8.33337 5.83333C8.33337 6.27536 8.50897 6.69928 8.82153 7.01184C9.13409 7.32441 9.55801 7.5 10 7.5C10.4421 7.5 10.866 7.32441 11.1786 7.01184C11.4911 6.69928 11.6667 6.27536 11.6667 5.83333C11.6667 5.39131 11.4911 4.96738 11.1786 4.65482C10.866 4.34226 10.4421 4.16667 10 4.16667Z" fill="white"/>
</g>
<defs>
<clipPath id="clip0_77_3571">
<rect width="20" height="20" fill="white"/>
</clipPath>
</defs>
</svg>
