<svg width="20" height="20" viewBox="0 0 20 20" fill="none" xmlns="http://www.w3.org/2000/svg">
<g clip-path="url(#clip0_77_2381)">
<path d="M15.8333 2.5C16.2754 2.5 16.6993 2.67559 17.0118 2.98816C17.3244 3.30072 17.5 3.72464 17.5 4.16667V15.8333C17.5 16.2754 17.3244 16.6993 17.0118 17.0118C16.6993 17.3244 16.2754 17.5 15.8333 17.5H4.16667C3.72464 17.5 3.30072 17.3244 2.98816 17.0118C2.67559 16.6993 2.5 16.2754 2.5 15.8333V4.16667C2.5 3.72464 2.67559 3.30072 2.98816 2.98816C3.30072 2.67559 3.72464 2.5 4.16667 2.5H15.8333ZM15.8333 7.5H4.16667V15.8333H15.8333V7.5ZM7.08333 12.5C7.30435 12.5 7.51631 12.5878 7.67259 12.7441C7.82887 12.9004 7.91667 13.1123 7.91667 13.3333C7.91667 13.5543 7.82887 13.7663 7.67259 13.9226C7.51631 14.0789 7.30435 14.1667 7.08333 14.1667H6.25C6.02899 14.1667 5.81702 14.0789 5.66074 13.9226C5.50446 13.7663 5.41667 13.5543 5.41667 13.3333C5.41667 13.1123 5.50446 12.9004 5.66074 12.7441C5.81702 12.5878 6.02899 12.5 6.25 12.5H7.08333ZM10.4167 12.5C10.6291 12.5002 10.8334 12.5816 10.9878 12.7274C11.1423 12.8732 11.2352 13.0725 11.2476 13.2845C11.2601 13.4965 11.1911 13.7053 11.0548 13.8682C10.9185 14.0311 10.7251 14.1357 10.5142 14.1608L10.4167 14.1667H9.58333C9.37093 14.1664 9.16664 14.0851 9.01219 13.9393C8.85775 13.7935 8.7648 13.5942 8.75236 13.3822C8.73991 13.1701 8.8089 12.9614 8.94522 12.7985C9.08155 12.6356 9.27492 12.5309 9.48583 12.5058L9.58333 12.5H10.4167ZM7.08333 9.16667C7.29573 9.1669 7.50003 9.24823 7.65447 9.39404C7.80892 9.53985 7.90186 9.73913 7.91431 9.95116C7.92676 10.1632 7.85777 10.372 7.72145 10.5349C7.58512 10.6977 7.39175 10.8024 7.18083 10.8275L7.08333 10.8333H6.25C6.0376 10.8331 5.83331 10.7518 5.67886 10.606C5.52441 10.4602 5.43147 10.2609 5.41902 10.0488C5.40658 9.8368 5.47556 9.62802 5.61189 9.46514C5.74821 9.30226 5.94159 9.19759 6.1525 9.1725L6.25 9.16667H7.08333ZM10.4167 9.16667C10.6377 9.16667 10.8496 9.25446 11.0059 9.41074C11.1622 9.56702 11.25 9.77899 11.25 10C11.25 10.221 11.1622 10.433 11.0059 10.5893C10.8496 10.7455 10.6377 10.8333 10.4167 10.8333H9.58333C9.36232 10.8333 9.15036 10.7455 8.99408 10.5893C8.8378 10.433 8.75 10.221 8.75 10C8.75 9.77899 8.8378 9.56702 8.99408 9.41074C9.15036 9.25446 9.36232 9.16667 9.58333 9.16667H10.4167ZM13.75 9.16667C13.9624 9.1669 14.1667 9.24823 14.3211 9.39404C14.4756 9.53985 14.5685 9.73913 14.581 9.95116C14.5934 10.1632 14.5244 10.372 14.3881 10.5349C14.2518 10.6977 14.0584 10.8024 13.8475 10.8275L13.75 10.8333H12.9167C12.7043 10.8331 12.5 10.7518 12.3455 10.606C12.1911 10.4602 12.0981 10.2609 12.0857 10.0488C12.0732 9.8368 12.1422 9.62802 12.2786 9.46514C12.4149 9.30226 12.6083 9.19759 12.8192 9.1725L12.9167 9.16667H13.75ZM15.8333 4.16667H4.16667V5.83333H15.8333V4.16667Z" fill="white"/>
</g>
<defs>
<clipPath id="clip0_77_2381">
<rect width="20" height="20" fill="white"/>
</clipPath>
</defs>
</svg>
