<svg width="20" height="20" viewBox="0 0 20 20" fill="none" xmlns="http://www.w3.org/2000/svg">
<g clip-path="url(#clip0_77_3533)">
<path fill-rule="evenodd" clip-rule="evenodd" d="M7.5 1.66651C7.97299 1.66595 8.44065 1.7663 8.87177 1.96088C9.30288 2.15545 9.68752 2.43977 10 2.79484C10.3125 2.43977 10.6971 2.15545 11.1282 1.96088C11.5593 1.7663 12.027 1.66595 12.5 1.66651H12.9167C13.2482 1.66651 13.5661 1.7982 13.8005 2.03262C14.035 2.26704 14.1667 2.58499 14.1667 2.91651V3.33317C14.1667 3.94067 14.0042 4.50984 13.7208 4.99984H15.8333C16.2754 4.99984 16.6993 5.17543 17.0118 5.488C17.3244 5.80056 17.5 6.22448 17.5 6.66651V9.16651C17.5 9.45906 17.423 9.74646 17.2767 9.99982C17.1304 10.2532 16.92 10.4636 16.6667 10.6098V14.9998C16.6667 15.6629 16.4033 16.2988 15.9344 16.7676C15.4656 17.2364 14.8297 17.4998 14.1667 17.4998H5.83333C5.17029 17.4998 4.53441 17.2364 4.06557 16.7676C3.59673 16.2988 3.33333 15.6629 3.33333 14.9998V10.6098C3.07997 10.4636 2.86958 10.2532 2.7233 9.99982C2.57702 9.74646 2.50001 9.45906 2.5 9.16651V6.66651C2.5 6.22448 2.67559 5.80056 2.98816 5.488C3.30072 5.17543 3.72464 4.99984 4.16667 4.99984H6.27917C5.98621 4.49331 5.8324 3.91832 5.83333 3.33317V2.91651C5.83333 2.58499 5.96503 2.26704 6.19945 2.03262C6.43387 1.7982 6.75181 1.66651 7.08333 1.66651H7.5ZM15 10.8332H10.8333V15.8332H14.1667L14.2642 15.8273C14.4502 15.8054 14.6234 15.7214 14.7558 15.589C14.8883 15.4566 14.9722 15.2834 14.9942 15.0973L15 14.9998V10.8332ZM9.16667 10.8332H5V14.9998C5.00003 15.204 5.07496 15.401 5.2106 15.5535C5.34623 15.706 5.53312 15.8035 5.73583 15.8273L5.83333 15.8332H9.16667V10.8332ZM15.8333 6.66651H10.8333V9.16651H15.8333V6.66651ZM9.16667 6.66651H4.16667V9.16651H9.16667V6.66651ZM7.5 3.33317C7.5 3.7752 7.67559 4.19912 7.98816 4.51168C8.30072 4.82425 8.72464 4.99984 9.16667 4.99984C9.16667 4.55781 8.99107 4.13389 8.67851 3.82133C8.36595 3.50877 7.94203 3.33317 7.5 3.33317ZM12.5 3.33317C12.058 3.33317 11.634 3.50877 11.3215 3.82133C11.0089 4.13389 10.8333 4.55781 10.8333 4.99984C11.2754 4.99984 11.6993 4.82425 12.0118 4.51168C12.3244 4.19912 12.5 3.7752 12.5 3.33317Z" fill="white"/>
</g>
<defs>
<clipPath id="clip0_77_3533">
<rect width="20" height="20" fill="white"/>
</clipPath>
</defs>
</svg>
