<svg width="30" height="24" viewBox="0 0 30 24" fill="none" xmlns="http://www.w3.org/2000/svg">
<g clip-path="url(#clip0_78_296)">
<path d="M25 18C25.3186 18.0003 25.625 18.0979 25.8567 18.2728C26.0884 18.4478 26.2278 18.687 26.2465 18.9414C26.2651 19.1958 26.1617 19.4464 25.9572 19.6418C25.7527 19.8373 25.4626 19.9629 25.1463 19.993L25 20H5C4.6814 19.9997 4.37496 19.9021 4.14329 19.7272C3.91162 19.5522 3.77221 19.313 3.75353 19.0586C3.73486 18.8042 3.83834 18.5536 4.04283 18.3582C4.24732 18.1627 4.53738 18.0371 4.85375 18.007L5 18H25ZM25 11C25.3315 11 25.6495 11.1054 25.8839 11.2929C26.1183 11.4804 26.25 11.7348 26.25 12C26.25 12.2652 26.1183 12.5196 25.8839 12.7071C25.6495 12.8946 25.3315 13 25 13H5C4.66848 13 4.35054 12.8946 4.11612 12.7071C3.8817 12.5196 3.75 12.2652 3.75 12C3.75 11.7348 3.8817 11.4804 4.11612 11.2929C4.35054 11.1054 4.66848 11 5 11H25ZM25 4C25.3315 4 25.6495 4.10536 25.8839 4.29289C26.1183 4.48043 26.25 4.73478 26.25 5C26.25 5.26522 26.1183 5.51957 25.8839 5.70711C25.6495 5.89464 25.3315 6 25 6H5C4.66848 6 4.35054 5.89464 4.11612 5.70711C3.8817 5.51957 3.75 5.26522 3.75 5C3.75 4.73478 3.8817 4.48043 4.11612 4.29289C4.35054 4.10536 4.66848 4 5 4H25Z" fill="#818181"/>
</g>
<defs>
<clipPath id="clip0_78_296">
<rect width="30" height="24" fill="white"/>
</clipPath>
</defs>
</svg>
