<svg width="20" height="20" viewBox="0 0 20 20" fill="none" xmlns="http://www.w3.org/2000/svg">
<g clip-path="url(#clip0_77_2389)">
<path d="M15 1.66675C15.442 1.66675 15.8659 1.84234 16.1785 2.1549C16.4911 2.46746 16.6667 2.89139 16.6667 3.33341V12.9884C16.6666 13.4304 16.4909 13.8543 16.1783 14.1667L12.5 17.8451C12.1875 18.1577 11.7637 18.3333 11.3217 18.3334H5C4.55797 18.3334 4.13405 18.1578 3.82149 17.8453C3.50893 17.5327 3.33333 17.1088 3.33333 16.6667V3.33341C3.33333 2.89139 3.50893 2.46746 3.82149 2.1549C4.13405 1.84234 4.55797 1.66675 5 1.66675H15ZM15 3.33341H5V16.6667H10V12.9167C10 12.5852 10.1317 12.2673 10.3661 12.0329C10.6005 11.7984 10.9185 11.6667 11.25 11.6667H15V3.33341ZM14.655 13.3334H11.6667V16.3217L14.655 13.3334ZM8.33333 9.16675C8.55435 9.16675 8.76631 9.25455 8.92259 9.41083C9.07887 9.56711 9.16667 9.77907 9.16667 10.0001C9.16667 10.2211 9.07887 10.4331 8.92259 10.5893C8.76631 10.7456 8.55435 10.8334 8.33333 10.8334H7.5C7.27898 10.8334 7.06702 10.7456 6.91074 10.5893C6.75446 10.4331 6.66667 10.2211 6.66667 10.0001C6.66667 9.77907 6.75446 9.56711 6.91074 9.41083C7.06702 9.25455 7.27898 9.16675 7.5 9.16675H8.33333ZM12.5 5.83341C12.721 5.83341 12.933 5.92121 13.0893 6.07749C13.2455 6.23377 13.3333 6.44573 13.3333 6.66675C13.3333 6.88776 13.2455 7.09972 13.0893 7.256C12.933 7.41228 12.721 7.50008 12.5 7.50008H7.5C7.27898 7.50008 7.06702 7.41228 6.91074 7.256C6.75446 7.09972 6.66667 6.88776 6.66667 6.66675C6.66667 6.44573 6.75446 6.23377 6.91074 6.07749C7.06702 5.92121 7.27898 5.83341 7.5 5.83341H12.5Z" fill="white"/>
</g>
<defs>
<clipPath id="clip0_77_2389">
<rect width="20" height="20" fill="white"/>
</clipPath>
</defs>
</svg>
