<svg width="20" height="20" viewBox="0 0 20 20" fill="none" xmlns="http://www.w3.org/2000/svg">
<g clip-path="url(#clip0_77_2373)">
<path d="M7.835 2.99661C8.05618 2.79418 8.31845 2.64188 8.60389 2.55011C8.88933 2.45834 9.19122 2.42926 9.48893 2.46486C9.78664 2.50046 10.0732 2.59991 10.3289 2.7564C10.5847 2.91289 10.8036 3.12274 10.9708 3.37161L11.0458 3.49328L11.6208 4.49078C11.66 4.43661 11.7025 4.38328 11.7458 4.33245C12.2242 3.76911 12.9158 3.41411 13.6933 3.28328C14.3433 3.17495 14.8467 3.59161 15.035 4.06411L15.0692 4.15911C15.24 4.71578 15.5508 5.39245 15.9442 6.11578C17.2592 8.54328 17.0733 11.6066 15.3108 13.6466C14.9608 15.2391 14.0233 16.6816 12.4775 17.5741C11.1309 18.3513 9.53079 18.5619 8.02901 18.1594C6.52722 17.757 5.24674 16.7746 4.46917 15.4283C3.86787 14.3862 3.25784 13.3493 2.63917 12.3174C2.48553 12.0617 2.38892 11.7758 2.35594 11.4793C2.32296 11.1828 2.35438 10.8827 2.44806 10.5994C2.54173 10.3162 2.69546 10.0565 2.89873 9.83811C3.102 9.61974 3.35001 9.44782 3.62583 9.33412L3.75167 9.28745L3.1075 8.17078C2.94998 7.8983 2.85624 7.59367 2.83332 7.27977C2.81041 6.96587 2.85891 6.65085 2.97519 6.35839C3.09147 6.06592 3.27251 5.8036 3.50471 5.59112C3.7369 5.37865 4.01422 5.22155 4.31583 5.13161C4.12733 4.67231 4.10905 4.16078 4.26429 3.68919C4.41953 3.2176 4.73809 2.81696 5.16256 2.55944C5.58704 2.30192 6.08953 2.20445 6.5795 2.28461C7.06947 2.36476 7.51471 2.61726 7.835 2.99661ZM4.70333 6.76661C4.60764 6.82187 4.53781 6.91288 4.50921 7.01961C4.48061 7.12635 4.49558 7.24008 4.55083 7.33578L7.25917 12.0274C7.31475 12.1223 7.35103 12.2271 7.36591 12.336C7.3808 12.4449 7.37401 12.5557 7.34592 12.6619C7.31782 12.7682 7.26899 12.8678 7.20224 12.9551C7.13548 13.0424 7.05211 13.1156 6.95694 13.1706C6.86176 13.2255 6.75666 13.2611 6.64768 13.2753C6.53869 13.2894 6.42798 13.2819 6.32192 13.2531C6.21586 13.2243 6.11654 13.1748 6.02969 13.1075C5.94283 13.0402 5.87015 12.9563 5.81583 12.8608L4.76833 11.0474C4.7413 11.0015 4.70548 10.9613 4.66292 10.9292C4.62036 10.8971 4.57189 10.8736 4.52027 10.8602C4.46866 10.8469 4.41492 10.8438 4.36211 10.8512C4.3093 10.8585 4.25846 10.8763 4.2125 10.9033C4.16654 10.9303 4.12635 10.9661 4.09423 11.0087C4.06211 11.0513 4.03869 11.0997 4.0253 11.1513C4.01191 11.203 4.00882 11.2567 4.01621 11.3095C4.02359 11.3623 4.0413 11.4132 4.06833 11.4591C4.69333 12.5008 5.305 13.5424 5.9125 14.5941C6.46905 15.5579 7.38566 16.2612 8.46069 16.5492C9.53573 16.8372 10.6811 16.6864 11.645 16.1299C12.7408 15.4966 13.44 14.4324 13.6967 13.2299L13.7175 12.7466C13.7592 11.6391 13.7233 10.6599 13.1467 9.59661C12.8033 8.96328 12.4917 8.31578 12.27 7.70912C11.8867 7.84911 11.6508 8.08328 11.5383 8.32411C11.3092 8.81578 11.5383 9.33745 11.7883 9.77078C11.8447 9.86462 11.882 9.96864 11.8982 10.0769C11.9143 10.1852 11.909 10.2956 11.8825 10.4018C11.856 10.508 11.8088 10.6079 11.7437 10.6959C11.6786 10.7839 11.5968 10.8582 11.5029 10.9145C11.4091 10.9709 11.3051 11.0082 11.1968 11.0244C11.0885 11.0405 10.9781 11.0352 10.8719 11.0087C10.7657 10.9822 10.6658 10.935 10.5778 10.8699C10.4898 10.8048 10.4155 10.723 10.3592 10.6291C10.0617 10.1516 9.77583 9.66495 9.495 9.17578L8.66083 7.70245C8.5221 7.45744 8.38238 7.21299 8.24167 6.96911C8.17736 6.88543 8.08368 6.82926 7.97957 6.81196C7.87545 6.79467 7.76865 6.81753 7.68073 6.87592C7.59282 6.93432 7.53034 7.02391 7.50592 7.12659C7.4815 7.22927 7.49696 7.33739 7.54917 7.42911L9.42417 10.6766C9.53293 10.8679 9.56161 11.0945 9.50396 11.3068C9.4463 11.5192 9.30698 11.7001 9.11641 11.8102C8.92584 11.9202 8.69948 11.9504 8.48673 11.8941C8.27399 11.8379 8.09212 11.6998 7.98083 11.5099L7.3075 10.3599L5.94917 8.07495C5.7225 7.69245 5.49667 7.30828 5.2725 6.91912C5.21724 6.82342 5.12624 6.75359 5.0195 6.72499C4.91276 6.69639 4.79903 6.71136 4.70333 6.76661ZM13.6025 5.02245C13.3767 5.09917 13.1747 5.23294 13.0158 5.41078C12.8804 5.56832 12.7982 5.76459 12.7808 5.97161C13.2633 6.06078 13.6142 6.44495 13.7375 6.84578C13.9083 7.40245 14.2192 8.07828 14.6125 8.80245C14.815 9.17745 14.9825 9.56911 15.1142 9.96912C15.2088 8.90872 14.9876 7.84404 14.4783 6.90911C14.135 6.27662 13.8233 5.62911 13.6025 5.02245ZM9.03333 4.17245C8.93772 4.22756 8.86788 4.31835 8.83913 4.4249C8.81038 4.53145 8.82508 4.64506 8.88 4.74078L10.29 7.17578C10.4252 6.99044 10.5831 6.82275 10.76 6.67661L10.8958 6.57078L9.6025 4.32495C9.54724 4.22925 9.45624 4.15942 9.3495 4.13082C9.24276 4.10222 9.12903 4.1172 9.03333 4.17245ZM6.035 3.97911C5.9393 4.03437 5.86947 4.12538 5.84087 4.23212C5.81228 4.33885 5.82725 4.45258 5.8825 4.54828L6.52583 5.66328C6.73563 5.47691 6.98077 5.33465 7.24667 5.24495L6.60417 4.13328C6.54891 4.03758 6.4579 3.96776 6.35117 3.93916C6.24443 3.91056 6.1307 3.92553 6.035 3.98078V3.97911ZM17.8042 3.33078C17.9068 3.50747 17.9409 3.7157 17.9 3.91589C17.8591 4.11607 17.7461 4.29427 17.5825 4.41662L17.5017 4.46995L16.8017 4.87578C16.6177 4.98464 16.3989 5.01863 16.1905 4.97071C15.9822 4.92279 15.8002 4.79663 15.6823 4.61833C15.5643 4.44002 15.5194 4.2232 15.5569 4.01272C15.5943 3.80223 15.7112 3.61418 15.8833 3.48745L15.965 3.43411L16.665 3.02828C16.7597 2.97333 16.8642 2.93757 16.9727 2.92303C17.0812 2.9085 17.1915 2.91547 17.2972 2.94356C17.403 2.97165 17.5022 3.02031 17.5892 3.08675C17.6762 3.15319 17.7492 3.23611 17.8042 3.33078ZM15.5275 0.905781C15.7247 0.958573 15.8957 1.08193 16.008 1.25244C16.1203 1.42295 16.1661 1.62875 16.1367 1.83078L16.1167 1.92661L16.0092 2.32911C15.9535 2.53369 15.8219 2.70935 15.6413 2.82033C15.4606 2.93131 15.2445 2.96926 15.0368 2.92646C14.8292 2.88365 14.6457 2.76331 14.5236 2.58994C14.4016 2.41656 14.3502 2.2032 14.38 1.99328L14.3992 1.89828L14.5075 1.49578C14.5647 1.28245 14.7043 1.10057 14.8956 0.990097C15.0868 0.879623 15.3141 0.849597 15.5275 0.906615V0.905781ZM12.4883 0.905781C12.6856 0.852967 12.8955 0.874459 13.078 0.966173C13.2605 1.05789 13.403 1.21344 13.4783 1.40328L13.5092 1.49495L13.6175 1.89828C13.674 2.10418 13.6493 2.32392 13.5486 2.51216C13.4478 2.7004 13.2786 2.84278 13.0759 2.90991C12.8732 2.97705 12.6525 2.96382 12.4593 2.87296C12.2661 2.7821 12.1151 2.62054 12.0375 2.42161L12.0075 2.32995L11.8992 1.92661C11.8421 1.71323 11.8722 1.48594 11.9826 1.29468C12.0931 1.10342 12.275 0.963844 12.4883 0.906615V0.905781Z" fill="white"/>
</g>
<defs>
<clipPath id="clip0_77_2373">
<rect width="20" height="20" fill="white"/>
</clipPath>
</defs>
</svg>
