<svg width="20" height="20" viewBox="0 0 20 20" fill="none" xmlns="http://www.w3.org/2000/svg">
<g clip-path="url(#clip0_77_2358)">
<path fill-rule="evenodd" clip-rule="evenodd" d="M4.16667 1.66675C3.72464 1.66675 3.30072 1.84234 2.98816 2.1549C2.67559 2.46746 2.5 2.89139 2.5 3.33341V15.8334C2.5 16.2754 2.67559 16.6994 2.98816 17.0119C3.30072 17.3245 3.72464 17.5001 4.16667 17.5001H6.66667V15.8334H4.16667V3.33341H14.1667V6.66675H15.8333V3.33341C15.8333 2.89139 15.6577 2.46746 15.3452 2.1549C15.0326 1.84234 14.6087 1.66675 14.1667 1.66675H4.16667ZM6.66667 5.83342C6.44565 5.83342 6.23369 5.92121 6.07741 6.07749C5.92113 6.23377 5.83333 6.44573 5.83333 6.66675C5.83333 6.88776 5.92113 7.09972 6.07741 7.256C6.23369 7.41228 6.44565 7.50008 6.66667 7.50008H10C10.221 7.50008 10.433 7.41228 10.5893 7.256C10.7455 7.09972 10.8333 6.88776 10.8333 6.66675C10.8333 6.44573 10.7455 6.23377 10.5893 6.07749C10.433 5.92121 10.221 5.83342 10 5.83342H6.66667ZM13.2908 9.00925C13.761 8.54677 14.3949 8.28882 15.0544 8.29158C15.7139 8.29434 16.3456 8.5576 16.8119 9.024C17.2782 9.4904 17.5413 10.1222 17.5439 10.7817C17.5465 11.4412 17.2884 12.075 16.8258 12.5451L12.1125 17.2592C11.9563 17.4155 11.7443 17.5034 11.5233 17.5034H9.16583C8.94482 17.5034 8.73286 17.4156 8.57658 17.2593C8.4203 17.1031 8.3325 16.8911 8.3325 16.6701V14.3126C8.33255 14.0916 8.42038 13.8797 8.57667 13.7234L13.2908 9.00925ZM15.6475 10.1876C15.4912 10.0314 15.2793 9.94359 15.0583 9.94359C14.8374 9.94359 14.6254 10.0314 14.4692 10.1876L15.6475 11.3667C15.725 11.2894 15.7864 11.1974 15.8284 11.0963C15.8703 10.9951 15.8919 10.8867 15.8919 10.7772C15.8919 10.6677 15.8703 10.5592 15.8284 10.458C15.7864 10.3569 15.725 10.265 15.6475 10.1876ZM14.4692 12.5451L13.2908 11.3667L9.99917 14.6584V15.8367H11.1775L14.4692 12.5451Z" fill="white"/>
</g>
<defs>
<clipPath id="clip0_77_2358">
<rect width="20" height="20" fill="white"/>
</clipPath>
</defs>
</svg>
